<?xml version="1.0" encoding="utf-8"?>
<!-- Generator: Adobe Illustrator 18.0.0, SVG Export Plug-In . SVG Version: 6.00 Build 0)  -->
<!DOCTYPE svg PUBLIC "-//W3C//DTD SVG 1.1//EN" "http://www.w3.org/Graphics/SVG/1.1/DTD/svg11.dtd">
<svg version="1.1" id="Layer_1" xmlns="http://www.w3.org/2000/svg" xmlns:xlink="http://www.w3.org/1999/xlink" x="0px" y="0px"
	 viewBox="-18.5 8 396.2 84.5" enable-background="new -18.5 8 396.2 84.5" xml:space="preserve">
<rect x="-18.5" y="8" width="396.2" height="84.5"/>
<g>
	<path fill="#E48D25" d="M166.9,66.2c0,1.5-0.4,2.6-1.5,4.3c-1,1.5-10.3,14.6-28.3,14.6c-19.2,0-34.9-15.7-34.9-34.9
		c0-19.2,15.7-34.9,34.9-34.9c15.6,0,26.3,10,30.6,18.1l-12.4,5.9c-4.1-6.7-10.7-10.2-18.1-10.2c-11.5,0-21.2,9.2-21.2,21.2
		c0,11.4,9.1,21.2,21.2,21.2c10.5,0,16.3-7.5,16.7-8.1c2.2-3.2,4.4-3.8,6.3-3.8C163.7,59.4,166.9,62.5,166.9,66.2z"/>
	<path fill="#E48D25" d="M226.9,33.7c0,4.6-2.1,8.8-5,11.8c7.2,3.2,12,10.6,12,18.7c0,11.4-9.4,20.9-20.9,20.9h-35.5V15.3h31
		C218.6,15.2,226.9,23.5,226.9,33.7z M220.2,63.5c0-4.7-3.8-8.5-8.5-8.5h-15.1c-4.7,0-8.5,3.8-8.5,8.5c0,4.6,3.9,8.5,8.5,8.5h15.1
		C216.4,72,220.2,68.2,220.2,63.5z M213.2,34.5c0-3.1-2.6-5.8-5.8-5.8h-16.2v11.5h16.2C210.6,40.2,213.2,37.6,213.2,34.5z"/>
	<path fill="#E48D25" d="M235.5,28.9V15.2h48.2c3.8,0,6.9,3.1,6.9,6.9c0,3.8-3.1,6.8-6.9,6.8h-15.1v56.2h-13.8V28.9H235.5z"/>
	<path fill="#E48D25" d="M327.9,44c13.9,3.8,20.2,10.8,20.2,21.6c0,14.3-15.1,20.6-25.6,20.6c-10.6,0-20.5-3.1-29.5-14.7
		c-0.6-0.8-1.3-2.3-1.3-3.9c0-3.7,3.1-6.9,6.9-6.9c1.8,0,4,1,4.8,1.9c5.9,7.2,12.4,10,19.1,10c6.6,0,10.6-2.7,10.6-7
		c0-7.4-9.9-8.7-17.2-10.6c-11.2-3-19.1-11-19.1-20.4c0-15.2,15.2-20.3,25.7-20.3c12.2,0,20.7,7.1,24.9,12.6l-9.2,9.1
		c-4.2-5.4-10.9-8.5-15.7-8.5c-8,0-11.4,2.4-11.4,6.4C311,40.3,322.6,42.6,327.9,44z"/>
</g>
<g>
	<path fill="#FBB646" d="M61.2,75l-28-6.3l27.4,0.7L22.5,47.5l39.1,16.3l-32-44.6c-3,1.5-5.8,3.4-8.3,5.8
		C7.4,38.2,6.9,60.2,20.1,74.1c12.1,12.7,31.4,14.2,45.2,4.4l-16.2,1.8L61.2,75z"/>
	<path fill="#1295D2" d="M69.2,62.7L56.7,17.4c-0.2-0.1-0.4-0.1-0.6-0.2c-8.7-2.9-18.3-2.3-26.6,1.9C29.5,19.2,69.2,62.7,69.2,62.7z
		"/>
	<path fill="#B5BC34" d="M77,64L77,64c5.4-12.3,3.2-27.4-6.7-37.7c-3.9-4.1-8.3-6.9-13.3-8.7c-0.1,0-0.2-0.1-0.3-0.1l0,0
		C56.7,17.5,76.7,63.5,77,64z"/>
</g>
</svg>
