<?xml version="1.0" encoding="utf-8"?>
<!-- Generator: Adobe Illustrator 18.0.0, SVG Export Plug-In . SVG Version: 6.00 Build 0)  -->
<!DOCTYPE svg PUBLIC "-//W3C//DTD SVG 1.1//EN" "http://www.w3.org/Graphics/SVG/1.1/DTD/svg11.dtd">
<svg version="1.1" id="Layer_1" xmlns="http://www.w3.org/2000/svg" xmlns:xlink="http://www.w3.org/1999/xlink" x="0px" y="0px"
	 viewBox="-18.5 338.7 612 130.5" enable-background="new -18.5 338.7 612 130.5" xml:space="preserve">
<rect x="-18.5" y="338.7" width="612" height="130.5"/>
<g>
	<path fill="#E48D25" d="M267.9,428.6c0,2.3-0.6,4-2.3,6.6c-1.5,2.3-15.9,22.6-43.7,22.6c-29.7,0-53.9-24.3-53.9-53.9
		c0-29.7,24.3-53.9,53.9-53.9c24.1,0,40.6,15.4,47.3,28l-19.2,9.1c-6.3-10.3-16.5-15.8-28-15.8c-17.8,0-32.7,14.2-32.7,32.7
		c0,17.6,14.1,32.7,32.7,32.7c16.2,0,25.2-11.6,25.8-12.5c3.4-4.9,6.8-5.9,9.7-5.9C262.9,418.1,267.9,422.9,267.9,428.6z"/>
	<path fill="#E48D25" d="M360.6,378.4c0,7.1-3.2,13.6-7.7,18.2c11.1,4.9,18.5,16.4,18.5,28.9c0,17.6-14.5,32.3-32.3,32.3h-54.8V350
		h47.9C347.7,349.9,360.6,362.7,360.6,378.4z M350.2,424.5c0-7.3-5.9-13.1-13.1-13.1h-23.3c-7.3,0-13.1,5.9-13.1,13.1
		c0,7.1,6,13.1,13.1,13.1h23.3C344.3,437.6,350.2,431.7,350.2,424.5z M339.4,379.7c0-4.8-4-9-9-9h-25v17.8h25
		C335.4,388.5,339.4,384.5,339.4,379.7z"/>
	<path fill="#E48D25" d="M373.8,371v-21.2h74.5c5.9,0,10.7,4.8,10.7,10.7s-4.8,10.5-10.7,10.5H425v86.8h-21.3V371H373.8z"/>
	<path fill="#E48D25" d="M516.6,394.3c21.5,5.9,31.2,16.7,31.2,33.4c0,22.1-23.3,31.8-39.5,31.8c-16.4,0-31.7-4.8-45.6-22.7
		c-0.9-1.2-2-3.6-2-6c0-5.7,4.8-10.7,10.7-10.7c2.8,0,6.2,1.5,7.4,2.9c9.1,11.1,19.2,15.4,29.5,15.4c10.2,0,16.4-4.2,16.4-10.8
		c0-11.4-15.3-13.4-26.6-16.4c-17.3-4.6-29.5-17-29.5-31.5c0-23.5,23.5-31.4,39.7-31.4c18.8,0,32,11,38.5,19.5L532.5,382
		c-6.5-8.3-16.8-13.1-24.3-13.1c-12.4,0-17.6,3.7-17.6,9.9C490.5,388.6,508.4,392.2,516.6,394.3z"/>
</g>
<g>
	<path fill="#FBB646" d="M104.6,442.2l-43.3-9.7l42.3,1.1l-58.9-33.8l60.4,25.2L55.8,356c-4.6,2.3-9,5.3-12.8,9
		c-21.5,20.4-22.2,54.4-1.9,75.8c18.7,19.6,48.5,21.9,69.8,6.8l-25,2.8L104.6,442.2z"/>
	<path fill="#1295D2" d="M117,423.2l-19.3-70c-0.3-0.2-0.6-0.2-0.9-0.3c-13.4-4.5-28.3-3.6-41.1,2.9C55.6,356,117,423.2,117,423.2z"
		/>
	<path fill="#B5BC34" d="M129,425.2L129,425.2c8.3-19,4.9-42.3-10.3-58.2c-6-6.3-12.8-10.7-20.5-13.4c-0.2,0-0.3-0.2-0.5-0.2l0,0
		C97.7,353.4,128.6,424.5,129,425.2z"/>
</g>
</svg>
