<?xml version="1.0" encoding="utf-8"?>
<!-- Generator: Adobe Illustrator 18.0.0, SVG Export Plug-In . SVG Version: 6.00 Build 0)  -->
<!DOCTYPE svg PUBLIC "-//W3C//DTD SVG 1.1//EN" "http://www.w3.org/Graphics/SVG/1.1/DTD/svg11.dtd">
<svg version="1.1"
	 id="Layer_2" xmlns:svg="http://www.w3.org/2000/svg" xmlns:rdf="http://www.w3.org/1999/02/22-rdf-syntax-ns#" xmlns:cc="http://creativecommons.org/ns#" xmlns:dc="http://purl.org/dc/elements/1.1/"
	 xmlns="http://www.w3.org/2000/svg" xmlns:xlink="http://www.w3.org/1999/xlink" x="0px" y="0px" viewBox="0 0 99.3 16"
	 enable-background="new 0 0 99.3 16" xml:space="preserve"
	 width="100"
	 height="16"
	 >
<g>
	<path fill="#E48D25" d="M40.8,11.5c0,0.3-0.1,0.6-0.3,0.9c-0.2,0.3-2.2,3.1-6,3.1c-4.1,0-7.5-3.4-7.5-7.5c0-4.1,3.4-7.5,7.5-7.5
		c3.3,0,5.6,2.1,6.5,3.9l-2.7,1.3c-0.9-1.4-2.3-2.2-3.9-2.2c-2.5,0-4.5,2-4.5,4.5c0,2.4,2,4.5,4.5,4.5c2.2,0,3.5-1.6,3.6-1.7
		c0.5-0.7,0.9-0.8,1.3-0.8C40.1,10,40.8,10.7,40.8,11.5z"/>
	<path fill="#E48D25" d="M53.6,4.5c0,1-0.4,1.9-1.1,2.5c1.5,0.7,2.6,2.3,2.6,4c0,2.4-2,4.5-4.5,4.5l-7.6,0l0-14.9l6.6,0
		C51.8,0.6,53.6,2.3,53.6,4.5z M52.2,10.9c0-1-0.8-1.8-1.8-1.8l-3.2,0c-1,0-1.8,0.8-1.8,1.8c0,1,0.8,1.8,1.8,1.8l3.2,0
		C51.3,12.7,52.2,11.9,52.2,10.9z M50.7,4.7c0-0.7-0.6-1.2-1.2-1.2l-3.5,0l0,2.5l3.5,0C50.1,5.9,50.7,5.4,50.7,4.7z"/>
	<path fill="#E48D25" d="M55.4,3.5V0.6l10.3,0c0.8,0,1.5,0.7,1.5,1.5s-0.7,1.5-1.5,1.5l-3.2,0l0,12l-2.9,0l0-12L55.4,3.5z"/>
	<path fill="#E48D25" d="M75.2,6.7c3,0.8,4.3,2.3,4.3,4.6c0,3.1-3.2,4.4-5.5,4.4c-2.3,0-4.4-0.7-6.3-3.1c-0.1-0.2-0.3-0.5-0.3-0.8
		c0-0.8,0.7-1.5,1.5-1.5c0.4,0,0.9,0.2,1,0.4c1.3,1.5,2.7,2.1,4.1,2.1c1.4,0,2.3-0.6,2.3-1.5c0-1.6-2.1-1.9-3.7-2.3
		c-2.4-0.6-4.1-2.4-4.1-4.4c0-3.3,3.3-4.3,5.5-4.3c2.6,0,4.4,1.5,5.3,2.7l-2,2c-0.9-1.1-2.3-1.8-3.4-1.8c-1.7,0-2.4,0.5-2.4,1.4
		C71.6,5.9,74,6.4,75.2,6.7z"/>
</g>
<g>
	<path fill="#FBB646" d="M18.2,13.4l-6-1.3l5.9,0.2L9.9,7.5l8.4,3.5l-6.8-9.5c-0.6,0.3-1.2,0.7-1.8,1.2c-3,2.8-3.1,7.5-0.3,10.5
		c2.6,2.7,6.7,3,9.7,0.9l-3.5,0.4L18.2,13.4z"/>
	<path fill="#1295D2" d="M19.9,10.7L17.2,1c0,0-0.1,0-0.1,0c-1.9-0.6-3.9-0.5-5.7,0.4C11.4,1.4,19.9,10.7,19.9,10.7z"/>
	<path fill="#B5BC34" d="M21.5,11L21.5,11c1.1-2.6,0.7-5.9-1.4-8.1c-0.8-0.9-1.8-1.5-2.8-1.9c0,0,0,0-0.1,0l0,0
		C17.2,1.1,21.5,10.9,21.5,11z"/>
</g>
</svg>
